<svg width="18" height="22" viewBox="0 0 18 22" fill="none" xmlns="http://www.w3.org/2000/svg">
<path d="M9.61512 20.5988V20.5954H9.56512H2.09465C1.87514 20.5954 1.69516 20.4132 1.69516 20.187V2.11327C1.69516 1.88725 1.87532 1.70484 2.09465 1.70484H9.56512C9.77147 1.70484 9.9377 1.53504 9.9377 1.32742C9.9377 1.11981 9.77147 0.95 9.56512 0.95H2.09465C1.46265 0.95 0.95 1.47274 0.95 2.11328V20.187C0.95 20.8275 1.46265 21.3503 2.09465 21.3503H9.56512C9.77147 21.3503 9.9377 21.1804 9.9377 20.9728C9.9377 20.7823 9.79782 20.6236 9.61512 20.5988ZM17.1999 10.899V10.8981L17.1855 10.8835L12.7603 6.39209C12.6147 6.2443 12.3785 6.24434 12.2328 6.39207C12.0873 6.53947 12.0876 6.77813 12.2327 6.92545L12.2656 6.89304L12.2328 6.92546L16.0238 10.7727H5.61245C5.40611 10.7727 5.23987 10.9425 5.23987 11.1501C5.23987 11.3577 5.40611 11.5275 5.61245 11.5275H16.0238L12.2328 15.3752C12.0876 15.5225 12.0876 15.761 12.2327 15.9085L12.2327 15.9085C12.3054 15.9823 12.4006 16.0194 12.4964 16.0194C12.5922 16.0194 12.6876 15.9823 12.7602 15.9085L17.1853 11.4171C17.2549 11.3465 17.2942 11.2506 17.2942 11.1506C17.2942 11.1506 17.2942 11.1505 17.2942 11.1505H17.2442C17.2444 11.0633 17.2105 10.9802 17.1499 10.9186L17.1999 10.899Z" fill="#5D6679" stroke="#5D6679" stroke-width="0.1"/>
</svg>
